Coordinates
version=1
nRows=38
nColumns=38
inDegrees=no

Units are S.I. units (second, meters, Newtons, ...)
If the header above contains a line with 'inDegrees', this indicates whether rotational values are in degrees (yes) or radians (no).

endheader
time	pelvis_tilt	pelvis_list	pelvis_rotation	pelvis_tx	pelvis_ty	pelvis_tz	hip_flexion_r	hip_adduction_r	hip_rotation_r	knee_angle_r	ankle_angle_r	subtalar_angle_r	mtp_angle_r	hip_flexion_l	hip_adduction_l	hip_rotation_l	knee_angle_l	ankle_angle_l	subtalar_angle_l	mtp_angle_l	lumbar_extension	lumbar_bending	lumbar_rotation	arm_flex_r	arm_add_r	arm_rot_r	elbow_flex_r	pro_sup_r	wrist_flex_r	wrist_dev_r	arm_flex_l	arm_add_l	arm_rot_l	elbow_flex_l	pro_sup_l	wrist_flex_l	wrist_dev_l
120	-2.84072	1.45994	1.14514	0.722737	1.96571	1.02847	0.00440802	0.0103599	-0.177969	0	-0.260113	0	0	0.00705509	-0.102519	-0.362756	0.0771583	-0.305322	0	0	0.0177453	0.0971482	-0.0962586	0.225103	-0.111297	0.679898	0.112189	1.5708	0	0	0.0596014	-0.211351	0.756892	0.352531	1.04186	0	0
120.01	-2.81394	1.46285	1.12189	0.72336	1.9657	1.02846	-0.000710956	0.013133	-0.182285	0	-0.259727	0	0	0.00162747	-0.103288	-0.364936	0.0743683	-0.304851	0	0	0.0145918	0.0972146	-0.100385	0.217166	-0.114391	0.697076	0.132627	1.5708	0	0	0.0602204	-0.207974	0.763629	0.342139	1.03913	0	0
120.02	-2.76307	1.47184	1.07865	0.724055	1.96614	1.02913	-0.00167841	0.0117009	-0.210039	0	-0.247181	0	0	-0.0114941	-0.102873	-0.357881	0.0662982	-0.307733	0	0	0.0015291	0.0957178	-0.106559	0.221361	-0.108369	0.743611	0.126884	1.5708	0	0	0.0677978	-0.208266	0.794256	0.331478	1.01784	0	0
120.03	-2.78734	1.47134	1.10776	0.725085	1.96661	1.02845	-0.00504065	0.00351285	-0.195943	0	-0.248219	0	0	-0.0104959	-0.0998057	-0.353679	0.0623178	-0.307585	0	0	0.00310391	0.0920747	-0.109667	0.220092	-0.104026	0.754275	0.125566	1.5708	0	0	0.069389	-0.206558	0.801572	0.324375	1.0159	0	0
120.04	-2.79034	1.46399	1.10165	0.724391	1.96584	1.02737	0.00031873	0.00717155	-0.181645	0	-0.249003	0	0	-0.0101438	-0.102928	-0.36759	0.05398	-0.307355	0	0	0.0144623	0.0939769	-0.0989131	0.213945	-0.100742	0.775656	0.1207	1.5708	0	0	0.0680053	-0.201612	0.817101	0.311437	1.01145	0	0
120.05	-2.27213	1.47957	0.517604	0.723636	1.97414	1.02984	-0.0328803	0.0299598	-0.0566067	0	-0.250477	0	0	-0.0686504	-0.127841	-0.445533	0.0499356	-0.296867	0	0	-0.0723552	0.131129	-0.028886	0.252075	-0.112699	0.809809	0.119845	1.5708	0	0	0.100545	-0.192979	0.831329	0.321166	1.00012	0	0
120.06	-2.40482	1.4353	0.734886	0.730608	1.96755	1.02556	-0.00617581	0.0614643	-0.199518	0	-0.261224	0	0	-0.0106306	-0.159255	-0.347301	0.0579043	-0.279864	0	0	0.00522006	0.160038	-0.113408	0.221777	-0.113161	0.830867	0.115374	1.5708	0	0	0.0839558	-0.180513	0.869545	0.292495	0.976215	0	0
120.07	3.0813	1.1304	1.29614	0.70042	1.95845	0.996988	0.345251	0.0621421	0.23798	0	-0.273399	0	0	0.294098	-0.163775	-0.595055	0.0495735	-0.278956	0	0	0.509153	0.163805	0.0875658	0.0456205	-0.097481	0.825186	0.104329	1.5708	0	0	-0.0744898	-0.191415	0.936058	0.282551	0.924603	0	0
120.08	3.0254	1.17878	1.39016	0.704751	1.95506	0.995749	0.296059	0.0122887	0.260588	0	-0.254892	0	0	0.253246	-0.114932	-0.593162	0.0483218	-0.276248	0	0	0.46107	0.108459	0.0712794	0.0523128	-0.08752	0.823385	0.101245	1.5708	0	0	-0.0667255	-0.20998	0.939678	0.304715	0.924655	0	0
120.09	-2.41684	1.43131	0.757378	0.732907	1.96703	1.02446	-0.00400402	0.0633884	-0.225974	0	-0.260681	0	0	-0.00976974	-0.15897	-0.333554	0.0472901	-0.279303	0	0	0.0129431	0.15747	-0.108506	0.206699	-0.107665	0.803376	0.108872	1.5708	0	0	0.0972185	-0.181296	0.963478	0.277038	0.909579	0	0
120.1	-2.78732	1.45121	1.10177	0.727806	1.96445	1.02491	0.00786526	0.0128894	-0.205994	0	-0.254313	0	0	-0.0117356	-0.104781	-0.368206	0.0289513	-0.304955	0	0	0.0333121	0.093694	-0.0765433	0.187428	-0.0895782	0.778598	0.101629	1.5708	0	0	0.0882575	-0.19642	0.970051	0.273525	0.916038	0	0
120.11	-2.72378	1.52822	0.971838	0.723963	1.97534	1.03106	-0.0450399	-0.0283545	-0.0813143	0	-0.244687	0	0	-0.0905107	-0.0623415	-0.432406	0.0197615	-0.32198	0	0	-0.0905338	0.0534951	-0.00182139	0.234743	-0.0816729	0.755843	0.0957805	1.5708	0	0	0.134307	-0.217607	0.96534	0.306119	0.917144	0	0
120.12	2.37763	1.51104	2.18745	0.727082	1.96856	1.02421	-0.06661	-0.0917105	-0.00990104	0	-0.230875	0	0	-0.0798215	-8.21088e-05	-0.426681	0.0148144	-0.322837	0	0	-0.0478655	-0.0108778	-0.0335364	0.208662	-0.0669448	0.74037	0.0835517	1.5708	0	0	0.106196	-0.246656	0.957691	0.343608	0.922032	0	0
120.13	2.35261	1.51228	2.2197	0.727649	1.96824	1.02463	-0.0538855	-0.0993622	0.0827718	0	-0.228505	0	0	-0.0825657	0.00031038	-0.411977	0.0139105	-0.324099	0	0	-0.0454063	-0.0150422	-0.0394488	0.203641	-0.0608147	0.719307	0.0776751	1.5708	0	0	0.0972079	-0.258823	0.948815	0.365298	0.924535	0	0
120.14	3.10053	1.47803	1.53125	0.734702	1.96099	1.022	-0.0480765	-0.0463351	-0.0502695	0	-0.219551	0	0	-0.032335	-0.0453085	-0.344243	0.0123819	-0.313936	0	0	0.0262092	0.0348983	-0.0924973	0.174758	-0.0762227	0.649876	0.0779082	1.5708	0	0	0.0745319	-0.229433	0.91611	0.329682	0.953596	0	0
120.15	3.10587	1.47614	1.52858	0.735741	1.96073	1.02187	-0.0463289	-0.0461707	-0.0545064	0	-0.219612	0	0	-0.0306723	-0.0448968	-0.34016	0.0114375	-0.313481	0	0	0.0281922	0.0345501	-0.0903138	0.17316	-0.07694	0.619981	0.0716364	1.5708	0	0	0.0725059	-0.231149	0.89802	0.336195	0.96306	0	0
120.16	3.11002	1.47557	1.52475	0.736635	1.96055	1.02192	-0.0452812	-0.0463011	-0.0557888	0	-0.219802	0	0	-0.0303412	-0.0441712	-0.339258	0.0110894	-0.313018	0	0	0.0279589	0.0344222	-0.086287	0.172731	-0.0781747	0.599536	0.064504	1.5708	0	0	0.0712096	-0.233372	0.883317	0.343677	0.967765	0	0
120.17	3.1159	1.4738	1.52033	0.737614	1.96036	1.02182	-0.0430352	-0.0462154	-0.0576716	0	-0.219874	0	0	-0.0282453	-0.0442545	-0.337946	0.0117981	-0.312007	0	0	0.0289995	0.0345051	-0.0842723	0.172604	-0.0790913	0.57181	0.0577389	1.5708	0	0	0.0679023	-0.235774	0.860522	0.353341	0.977501	0	0
120.18	3.12032	1.47216	1.51907	0.738698	1.95995	1.02168	-0.0416321	-0.0461541	-0.061315	0	-0.21948	0	0	-0.0261882	-0.0439436	-0.333973	0.0121496	-0.3109	0	0	0.0304137	0.0341611	-0.0840073	0.172159	-0.0799342	0.544449	0.0513118	1.5708	0	0	0.0629625	-0.238363	0.832854	0.364521	0.990332	0	0
120.19	3.12041	1.47257	1.52126	0.739712	1.95951	1.02176	-0.0422451	-0.0466613	-0.0640735	0	-0.21921	0	0	-0.0258649	-0.0431266	-0.332544	0.0138254	-0.310091	0	0	0.0291649	0.033343	-0.0829265	0.172394	-0.0809768	0.525403	0.0452496	1.5708	0	0	0.059756	-0.241434	0.813881	0.375075	0.995553	0	0
120.2	3.13151	1.47133	1.5127	0.740815	1.95936	1.02166	-0.0403438	-0.0459719	-0.0667549	0	-0.21863	0	0	-0.023401	-0.0438324	-0.329373	0.0158494	-0.308334	0	0	0.0290643	0.0336564	-0.081357	0.172673	-0.0826462	0.4993	0.0404604	1.5708	0	0	0.0556705	-0.24352	0.785325	0.387047	1.00995	0	0
120.21	-3.14038	1.47129	1.5035	0.741909	1.9592	1.02172	-0.0395796	-0.045368	-0.0697764	0	-0.218365	0	0	-0.0218526	-0.0443808	-0.327713	0.0187227	-0.306162	0	0	0.0275566	0.0339806	-0.0796979	0.173391	-0.0845122	0.481648	0.0356683	1.5708	0	0	0.0526606	-0.2456	0.762694	0.398227	1.01999	0	0
120.22	-2.69458	1.4678	1.07747	0.74783	1.95983	1.02089	-0.0506253	-0.00153898	-0.0832049	0	-0.22144	0	0	-0.0236587	-0.0899436	-0.312015	0.0298519	-0.291429	0	0	0.0143655	0.0888864	-0.0966239	0.184973	-0.100162	0.475378	0.0253373	1.5708	0	0	0.0559272	-0.2334	0.750082	0.409993	1.02157	0	0
120.23	-3.11932	1.47401	1.48555	0.744173	1.95866	1.022	-0.0416955	-0.0446925	-0.0731834	0	-0.219009	0	0	-0.0218193	-0.0449716	-0.328924	0.0252849	-0.299087	0	0	0.0220063	0.0340204	-0.0746879	0.17513	-0.0890489	0.448632	0.0269088	1.5708	0	0	0.0491376	-0.250298	0.73282	0.419859	1.02993	0	0
120.24	-2.21298	1.4659	0.609533	0.749537	1.96062	1.02568	-0.00208499	0.119562	-0.530915	0	-0.258105	0	0	-0.0505867	-0.134201	-0.299479	0.0404021	-0.274244	0	0	-0.033851	0.129178	-0.100438	0.201583	-0.107211	0.433262	0.0185446	1.5708	0	0	0.0644331	-0.227652	0.695453	0.420262	1.05748	0	0
120.25	-2.50552	1.47866	0.914984	0.753462	1.95937	1.02261	-0.0514693	0.0126628	-0.23898	0	-0.246503	0	0	-0.0333852	-0.0979109	-0.287573	0.0437782	-0.272111	0	0	-0.0142141	0.0975194	-0.114134	0.197081	-0.10576	0.430582	0.0119021	1.5708	0	0	0.0526878	-0.236946	0.685572	0.441276	1.0605	0	0
120.26	-2.57292	1.47589	0.974653	0.753717	1.95885	1.02212	-0.0557049	0.00367235	-0.153318	0	-0.23904	0	0	-0.0283881	-0.0929369	-0.294734	0.0440443	-0.271312	0	0	-0.00811929	0.0922091	-0.105116	0.195542	-0.106756	0.428751	0.00931635	1.5708	0	0	0.0476658	-0.241085	0.677732	0.453151	1.0624	0	0
120.27	-2.3569	1.47208	0.749884	0.753429	1.95932	1.02391	0.00675126	0.0390349	-0.349741	0	-0.268362	0	0	-0.0384855	-0.115043	-0.310953	0.0526803	-0.266375	0	0	-0.0233262	0.110729	-0.0934696	0.197561	-0.108862	0.422894	0.0111109	1.5708	0	0	0.0480693	-0.23592	0.650944	0.459712	1.08657	0	0
120.28	-2.54803	1.47385	0.956301	0.756597	1.958	1.02202	-0.0474673	0.00523321	-0.197534	0	-0.252707	0	0	-0.0219325	-0.0954989	-0.297515	0.0564963	-0.264855	0	0	-0.00910231	0.0934545	-0.10499	0.194863	-0.11135	0.421947	0.00762566	1.5708	0	0	0.0435407	-0.241392	0.648163	0.468471	1.08956	0	0
120.29	-2.57079	1.47323	0.977167	0.757463	1.9575	1.02184	-0.0535665	-0.000677257	-0.135737	0	-0.241132	0	0	-0.019483	-0.0927751	-0.297528	0.0588888	-0.263351	0	0	-0.00737408	0.0901661	-0.100666	0.19383	-0.112565	0.421485	0.00708472	1.5708	0	0	0.041914	-0.244574	0.646418	0.476655	1.09298	0	0
120.3	-2.58873	1.47578	0.991388	0.758429	1.95646	1.02209	-0.0572711	-0.00704071	-0.109872	0	-0.233078	0	0	-0.0211979	-0.0884337	-0.306216	0.0609274	-0.262089	0	0	-0.00871367	0.0860299	-0.095049	0.192446	-0.11431	0.422229	0.00751395	1.5708	0	0	0.0408625	-0.246129	0.645678	0.481572	1.09706	0	0
120.31	-2.31152	1.43882	0.693567	0.757444	1.95974	1.02567	-0.012628	0.0439678	-0.259833	0	-0.244083	0	0	-0.00950341	-0.142667	-0.313152	0.0745263	-0.256257	0	0	-0.0192053	0.142252	-0.0674703	0.200798	-0.129335	0.424879	0.0165034	1.5708	0	0	0.0688176	-0.218424	0.653376	0.436705	1.11072	0	0
120.32	-2.58774	1.47956	0.995246	0.760967	1.95515	1.02346	-0.0515326	-0.00996184	-0.15308	0	-0.235269	0	0	-0.0152547	-0.0877588	-0.315736	0.0838707	-0.254997	0	0	-0.0143077	0.0816211	-0.0908565	0.188451	-0.118773	0.423676	0.0136943	1.5708	0	0	0.0519629	-0.240926	0.651293	0.466831	1.11488	0	0
120.33	-2.37704	1.40194	0.781991	0.761366	1.96018	1.02123	0.0239174	0.0627266	-0.256233	0	-0.239469	0	0	0.0428334	-0.1649	-0.266502	0.100385	-0.230907	0	0	0.0197769	0.161347	-0.0876031	0.196112	-0.134635	0.433295	0.0179485	1.5708	0	0	0.0629599	-0.220857	0.650674	0.450494	1.12541	0	0
120.34	-2.37299	1.42608	0.768048	0.762202	1.95807	1.02409	0.00512359	0.0422691	-0.251331	0	-0.239073	0	0	0.0188183	-0.144917	-0.292799	0.0978056	-0.236942	0	0	-0.00254166	0.14195	-0.0746103	0.194909	-0.135221	0.434775	0.0239812	1.5708	0	0	0.06835	-0.220909	0.654691	0.443812	1.13064	0	0
120.35	-2.35568	1.42992	0.751175	0.763837	1.95694	1.02446	0.000940979	0.0384205	-0.250151	0	-0.237993	0	0	0.0144044	-0.142516	-0.29693	0.100427	-0.237862	0	0	-0.0084847	0.139662	-0.073165	0.19501	-0.137074	0.436362	0.0262267	1.5708	0	0	0.0694501	-0.221769	0.657044	0.445988	1.13412	0	0
120.36	-2.34491	1.43065	0.744472	0.765514	1.9563	1.02451	0.000552984	0.0368064	-0.24766	0	-0.235586	0	0	0.0162235	-0.142528	-0.293492	0.107517	-0.236143	0	0	-0.0118995	0.13832	-0.0748197	0.195128	-0.138455	0.439329	0.0294314	1.5708	0	0	0.0713451	-0.223553	0.659842	0.448568	1.13839	0	0
120.37	-2.34221	1.43142	0.744654	0.767227	1.95548	1.0245	0.00175777	0.0342863	-0.243907	0	-0.231332	0	0	0.0178222	-0.141171	-0.290383	0.113164	-0.233016	0	0	-0.0139948	0.136371	-0.0759461	0.194666	-0.14008	0.443406	0.0329838	1.5708	0	0	0.0725048	-0.224829	0.662531	0.450103	1.14289	0	0
